<?xml version="1.0" standalone="no"?>
<!DOCTYPE svg PUBLIC "-//W3C//DTD SVG 20010904//EN"
 "http://www.w3.org/TR/2001/REC-SVG-20010904/DTD/svg10.dtd">
<svg version="1.0" xmlns="http://www.w3.org/2000/svg"
 width="1264.000000pt" height="1264.000000pt" viewBox="0 0 1264.000000 1264.000000"
 preserveAspectRatio="xMidYMid meet">
<metadata>
Created by potrace 1.14, written by Peter Selinger 2001-2017
</metadata>
<g transform="translate(0.000000,1264.000000) scale(0.100000,-0.100000)"
fill="#000000" stroke="none">
<path d="M3799 10155 c-2 -2 -47 -6 -99 -9 -52 -4 -108 -9 -125 -11 -16 -3
-50 -7 -75 -10 -25 -2 -61 -6 -80 -9 -179 -26 -263 -38 -305 -46 -27 -5 -66
-12 -85 -16 -19 -3 -39 -7 -45 -8 -5 -1 -37 -8 -70 -15 -33 -7 -107 -24 -165
-38 -58 -13 -112 -26 -120 -28 -8 -2 -28 -9 -45 -15 -16 -6 -39 -14 -49 -16
-81 -16 -354 -139 -501 -225 -257 -152 -419 -292 -598 -519 -24 -30 -54 -73
-67 -95 -13 -22 -30 -45 -36 -52 -40 -41 -240 -503 -218 -503 3 0 0 -8 -5 -18
-6 -11 -12 -30 -15 -43 -10 -50 -15 -71 -21 -89 -3 -10 -8 -34 -10 -55 -3 -20
-7 -40 -9 -44 -2 -3 -7 -35 -11 -71 -3 -36 -8 -72 -10 -80 -16 -57 -22 -389
-10 -505 4 -33 8 -78 10 -100 2 -22 6 -51 9 -65 2 -14 7 -43 10 -65 9 -58 54
-239 81 -320 44 -136 128 -321 198 -437 59 -98 81 -133 86 -138 4 -3 27 -32
51 -66 82 -111 232 -271 330 -350 19 -16 37 -31 40 -35 11 -13 198 -147 250
-179 30 -18 66 -40 80 -49 14 -8 27 -16 30 -16 3 0 16 -8 30 -17 14 -10 74
-40 133 -68 74 -35 105 -55 100 -63 -6 -10 -59 -81 -91 -122 -4 -5 -81 -104
-170 -220 -89 -115 -171 -221 -182 -235 -11 -14 -49 -63 -85 -110 -37 -47 -72
-92 -78 -100 -7 -8 -81 -105 -166 -215 -85 -110 -176 -227 -202 -260 -55 -70
-195 -251 -224 -291 -11 -15 -25 -32 -30 -38 -6 -6 -40 -49 -75 -96 -35 -47
-69 -90 -75 -96 -5 -7 -19 -24 -29 -39 -11 -14 -27 -35 -35 -45 -9 -10 -23
-28 -31 -40 -8 -12 -20 -28 -25 -34 -6 -6 -24 -29 -40 -51 -17 -22 -37 -49
-47 -60 -23 -28 -275 -355 -296 -384 -9 -13 -22 -28 -27 -35 -9 -10 -58 -72
-112 -143 -22 -30 -238 -308 -277 -358 -13 -16 -41 -52 -62 -80 -20 -27 -53
-69 -72 -93 l-34 -42 1043 0 1043 0 21 24 c11 13 28 35 37 48 141 193 178 245
185 253 5 6 20 26 33 45 13 19 28 40 33 45 19 23 360 493 383 528 14 21 32 45
40 55 9 9 70 91 135 182 66 91 126 173 134 183 8 9 15 21 15 25 0 5 11 19 25
32 14 13 23 25 21 28 -3 2 8 18 24 36 17 17 30 34 30 37 0 3 12 22 28 41 15
20 34 46 42 58 13 20 33 45 58 76 5 5 15 20 21 33 7 12 19 30 27 39 15 18 110
147 134 182 19 26 146 201 158 215 4 6 23 33 42 60 19 28 38 52 41 55 3 3 27
37 54 75 27 39 52 72 55 75 5 5 59 78 165 228 132 187 146 202 187 203 117 2
139 1 145 -4 3 -4 13 -3 22 1 9 5 27 7 41 5 14 -2 57 -3 96 -3 l70 1 0 -1431
-1 -1430 792 0 792 0 -5 1283 c-2 705 -4 1289 -4 1297 2 140 0 201 -5 210 -3
5 -1 10 5 10 6 0 8 5 5 10 -3 6 -6 40 -5 78 1 37 1 83 0 102 -1 19 -2 344 -4
722 -1 516 1 685 10 675 6 -6 66 -113 133 -237 67 -124 126 -232 131 -240 5
-8 33 -58 61 -110 29 -52 60 -108 69 -125 9 -16 36 -66 60 -110 40 -75 102
-186 173 -315 16 -30 41 -75 54 -100 13 -25 28 -52 33 -60 16 -25 190 -343
190 -348 0 -2 9 -17 21 -33 11 -16 17 -29 13 -29 -4 0 -1 -8 7 -17 8 -10 21
-31 30 -48 24 -43 79 -144 102 -185 11 -19 39 -71 62 -115 23 -44 51 -96 62
-115 11 -19 35 -62 53 -95 18 -33 50 -91 71 -128 22 -38 39 -70 39 -72 0 -2
17 -34 38 -72 22 -37 56 -99 77 -138 21 -38 56 -101 77 -140 21 -38 46 -83 54
-100 8 -16 28 -52 45 -80 16 -27 37 -67 45 -87 9 -21 20 -38 24 -38 4 0 10
-10 14 -23 l5 -22 626 0 c614 0 627 1 642 20 8 11 24 38 35 60 11 22 26 43 32
47 6 4 7 8 2 8 -5 0 -4 6 2 13 5 6 29 48 53 92 23 44 45 82 48 85 6 5 15 22
70 125 14 28 28 52 31 55 3 3 11 16 17 30 7 14 31 57 53 95 22 39 52 93 66
120 15 28 30 52 35 53 5 2 9 8 9 14 0 5 65 125 144 266 79 142 156 280 171
307 15 28 37 62 47 78 11 15 17 27 13 27 -3 0 6 17 20 37 14 21 25 42 25 47 0
5 6 17 14 25 7 9 28 45 47 81 19 36 36 67 39 70 3 3 13 21 24 40 29 55 72 132
93 170 11 19 29 51 39 70 11 19 21 37 24 40 3 3 20 34 39 70 19 36 39 72 45
80 6 8 20 33 31 55 11 22 22 42 25 45 3 3 13 21 24 40 63 120 325 585 335 597
6 7 11 17 11 23 0 6 8 23 19 38 31 46 111 191 111 202 0 5 4 10 8 10 5 0 8
-998 8 -2217 l0 -2218 752 -3 752 -2 0 3840 0 3840 -636 -2 -637 -3 -53 -89
c-30 -49 -54 -90 -54 -92 0 -2 -34 -60 -75 -129 -41 -69 -75 -129 -75 -135 0
-5 -3 -10 -7 -10 -5 0 -13 -10 -19 -23 -20 -40 -66 -122 -79 -137 -7 -8 -14
-19 -16 -25 -4 -10 -67 -120 -92 -159 -39 -63 -74 -123 -80 -136 -4 -8 -15
-29 -26 -45 -27 -46 -215 -365 -290 -493 -36 -63 -73 -126 -82 -140 -9 -15
-99 -169 -201 -342 -102 -173 -263 -448 -358 -610 -95 -162 -199 -339 -232
-393 -32 -54 -58 -102 -58 -107 0 -6 -4 -10 -10 -10 -5 0 -10 -4 -10 -10 0 -5
-38 -73 -85 -151 -47 -78 -85 -143 -85 -145 0 -5 -170 -289 -180 -301 -5 -7
-10 -16 -10 -20 0 -5 -15 -32 -34 -61 -19 -28 -32 -52 -28 -52 4 0 2 -4 -4 -8
-6 -4 -25 -32 -42 -62 -17 -30 -44 -77 -59 -104 -15 -27 -32 -56 -38 -65 -5
-9 -64 -108 -130 -221 -66 -113 -129 -219 -140 -236 -11 -17 -25 -40 -31 -50
-11 -18 -34 15 -142 206 -11 19 -43 76 -72 125 -29 50 -62 108 -74 130 -12 22
-23 42 -26 45 -8 8 -29 43 -37 60 -3 8 -44 79 -90 157 -45 78 -83 146 -83 152
0 6 -4 11 -8 11 -4 0 -15 15 -24 33 -23 49 -216 379 -227 390 -6 6 -11 19 -11
28 0 10 -3 19 -8 21 -7 3 -58 86 -110 180 -12 20 -32 55 -46 77 -15 22 -26 43
-26 46 0 3 -22 41 -49 84 -27 44 -47 81 -45 84 3 2 -2 10 -11 17 -8 7 -15 19
-15 26 0 8 -4 14 -10 14 -5 0 -10 4 -10 10 0 5 -14 33 -31 62 -33 55 -54 91
-90 156 -12 20 -43 74 -70 120 -27 45 -49 87 -49 92 0 6 -4 10 -9 10 -5 0 -11
8 -14 18 -3 9 -19 40 -36 67 -16 28 -36 61 -44 75 -30 55 -62 109 -110 190
-47 80 -62 106 -105 183 -11 17 -45 77 -77 132 -32 55 -67 116 -78 135 -10 19
-27 49 -38 65 -10 17 -27 46 -36 65 -10 19 -21 37 -24 40 -3 3 -9 12 -12 20
-4 8 -16 29 -27 45 -11 17 -23 37 -27 45 -10 22 -97 174 -103 180 -3 3 -13 21
-23 40 -31 59 -52 95 -57 100 -3 3 -10 14 -16 25 -42 77 -67 121 -74 130 -4 6
-23 37 -41 70 -18 33 -44 78 -58 100 -14 22 -26 42 -26 45 0 3 -8 16 -17 30
-19 30 -208 364 -228 403 l-14 27 -1037 0 c-570 -1 -1038 -3 -1040 -5z m1865
-390 c7 -11 24 -40 38 -65 14 -25 34 -61 45 -80 11 -19 29 -50 39 -69 11 -19
23 -40 27 -45 4 -6 51 -85 103 -176 52 -91 99 -172 104 -180 6 -8 16 -27 23
-42 6 -16 15 -28 19 -28 4 0 8 -4 8 -10 0 -5 14 -33 31 -62 37 -62 62 -105 97
-168 14 -25 33 -57 43 -72 11 -14 19 -28 19 -31 0 -3 27 -51 60 -106 33 -56
60 -106 60 -111 0 -6 4 -10 9 -10 5 0 11 -8 14 -17 3 -10 19 -40 35 -68 16
-27 55 -95 87 -150 31 -55 65 -111 73 -125 9 -14 15 -28 14 -32 -1 -5 2 -8 8
-8 5 0 10 -5 10 -10 0 -6 16 -36 35 -66 19 -30 35 -56 35 -58 0 -3 29 -54 65
-115 36 -60 65 -112 65 -115 0 -3 14 -25 30 -49 17 -25 30 -49 30 -55 0 -5 7
-15 15 -22 8 -7 12 -16 9 -21 -3 -5 0 -9 5 -9 6 0 11 -7 11 -15 0 -8 5 -15 10
-15 6 0 10 -4 10 -9 0 -6 37 -74 83 -153 46 -79 86 -150 90 -158 7 -15 15 -29
48 -80 9 -14 27 -45 41 -70 49 -87 51 -91 355 -612 56 -98 103 -180 103 -182
0 -3 22 -41 50 -86 28 -45 50 -83 50 -86 0 -2 18 -33 40 -69 22 -36 40 -70 40
-75 0 -6 5 -10 11 -10 5 0 8 -4 5 -9 -3 -5 1 -14 9 -21 8 -7 15 -19 15 -26 0
-8 5 -14 10 -14 6 0 10 -4 10 -9 0 -7 66 -125 154 -274 10 -18 30 -52 44 -77
14 -25 34 -58 44 -75 10 -16 23 -41 30 -55 7 -14 15 -27 18 -30 4 -3 62 -103
131 -223 68 -119 134 -234 147 -255 13 -20 25 -45 29 -54 9 -31 18 -22 68 68
19 33 286 487 300 509 7 11 13 25 14 30 1 6 8 17 15 25 11 13 113 183 173 290
17 30 60 103 177 301 11 20 54 92 94 160 40 68 77 131 83 139 8 14 83 142 119
205 10 17 53 90 96 163 44 73 88 150 100 170 47 84 67 118 84 142 9 14 20 32
23 40 4 8 18 33 31 55 14 22 31 51 39 65 8 14 83 142 167 285 84 143 164 280
178 305 13 25 30 52 36 60 6 8 17 26 25 40 62 108 255 437 261 445 4 6 19 30
32 55 62 110 479 817 493 835 8 10 15 23 15 27 0 5 17 37 39 71 21 34 78 130
126 212 48 83 99 170 114 194 l26 45 338 0 c216 1 338 -3 340 -9 2 -5 3 -1565
3 -3465 l-1 -3454 -373 -1 c-323 0 -373 2 -376 15 -2 8 -3 1247 -2 2753 0
1505 -1 2737 -4 2737 -8 0 -34 -43 -36 -60 -2 -8 -8 -16 -13 -18 -6 -2 -11 -9
-11 -17 0 -7 -7 -18 -15 -25 -9 -7 -13 -15 -11 -18 3 -3 -3 -17 -13 -31 -10
-14 -21 -33 -25 -41 -3 -8 -17 -33 -30 -55 -13 -22 -34 -60 -47 -85 -12 -25
-25 -47 -29 -50 -3 -3 -11 -16 -18 -30 -7 -14 -23 -43 -35 -65 -13 -22 -37
-65 -54 -95 -16 -30 -39 -71 -50 -90 -11 -19 -48 -87 -83 -150 -35 -63 -66
-117 -69 -120 -3 -3 -14 -21 -23 -40 -10 -19 -31 -60 -49 -90 -123 -217 -272
-485 -297 -535 -9 -16 -18 -32 -21 -35 -4 -3 -19 -30 -35 -60 -16 -30 -38 -67
-48 -82 -11 -16 -16 -28 -11 -28 4 0 3 -4 -2 -8 -6 -4 -16 -18 -23 -32 -7 -14
-20 -38 -30 -55 -10 -16 -36 -61 -57 -100 -21 -38 -46 -82 -57 -97 -11 -16
-16 -28 -12 -28 3 0 1 -6 -5 -13 -6 -8 -28 -45 -49 -83 -33 -59 -73 -131 -204
-364 -14 -25 -43 -76 -65 -115 -22 -38 -53 -95 -70 -125 -17 -30 -43 -77 -58
-105 -16 -27 -33 -59 -39 -70 -6 -11 -15 -23 -21 -27 -5 -4 -6 -8 -1 -8 5 0 4
-6 -2 -12 -16 -21 -122 -210 -122 -219 0 -5 -5 -9 -12 -9 -6 0 -8 -3 -5 -6 4
-4 -2 -19 -12 -33 -16 -23 -51 -85 -117 -211 -11 -19 -21 -37 -24 -40 -3 -3
-12 -18 -20 -35 -8 -16 -17 -32 -20 -35 -3 -3 -11 -16 -18 -30 -6 -14 -16 -32
-22 -40 -5 -8 -35 -62 -67 -120 -31 -58 -59 -107 -62 -110 -4 -3 -14 -21 -23
-40 -10 -19 -31 -60 -49 -90 -17 -30 -44 -77 -59 -105 -15 -27 -36 -64 -46
-82 l-18 -31 -405 1 -406 2 -38 70 c-21 39 -59 108 -84 155 -25 47 -49 90 -53
95 -4 6 -24 42 -44 80 -21 39 -49 90 -63 115 -14 25 -42 78 -64 117 -21 40
-45 83 -52 95 -8 13 -31 55 -52 93 -65 122 -137 254 -232 425 -14 25 -46 83
-71 130 -25 47 -54 97 -64 113 -11 15 -16 27 -13 27 3 0 -2 12 -13 28 -10 15
-37 61 -59 102 -22 41 -49 91 -60 110 -11 19 -35 64 -54 100 -18 36 -36 67
-39 70 -3 3 -21 34 -39 70 -19 36 -46 86 -60 112 -15 26 -43 80 -65 120 -21
40 -42 78 -46 83 -4 6 -27 46 -50 90 -64 120 -75 140 -80 145 -3 3 -18 30 -33
60 -42 83 -73 138 -87 155 -7 8 -9 15 -5 15 4 0 2 7 -5 15 -14 17 -59 96 -88
155 -9 19 -19 37 -22 40 -3 3 -14 23 -26 45 -12 22 -46 85 -76 140 -77 142
-136 249 -156 287 -9 18 -19 35 -22 38 -3 3 -18 30 -33 60 -16 30 -46 87 -68
125 -22 39 -45 82 -52 98 -6 15 -15 27 -19 27 -4 0 -8 5 -8 11 0 5 -39 81 -87
167 -48 86 -101 184 -117 217 -17 33 -34 62 -38 63 -5 2 -8 10 -8 18 0 9 -4
13 -8 10 -9 -5 -8 -1899 1 -1913 3 -5 2 -15 -3 -22 -4 -8 -4 -27 0 -42 5 -16
5 -31 2 -33 -4 -2 -5 -127 -2 -278 3 -150 5 -934 5 -1743 l0 -1470 -407 0
c-225 0 -409 2 -409 5 -1 3 -2 646 -3 1430 l-1 1425 -487 1 c-268 0 -491 -2
-495 -5 -5 -3 -63 -80 -128 -171 -66 -91 -123 -169 -128 -175 -8 -10 -315
-431 -434 -595 -34 -47 -68 -93 -77 -102 -9 -10 -16 -20 -16 -23 0 -3 -4 -11
-10 -18 -43 -53 -90 -118 -90 -126 0 -5 -4 -11 -8 -13 -7 -3 -233 -307 -257
-346 -5 -9 -14 -22 -20 -29 -31 -39 -92 -121 -127 -170 -48 -67 -207 -288
-215 -298 -32 -41 -107 -143 -202 -275 -61 -85 -120 -166 -131 -180 -10 -14
-36 -48 -57 -77 -21 -29 -69 -96 -108 -149 -38 -52 -77 -99 -85 -103 -11 -5
-1104 -7 -1118 -2 -2 1 117 158 143 188 5 7 25 31 42 55 30 40 109 141 154
198 11 14 45 59 77 100 31 41 62 81 69 88 7 7 13 16 13 20 0 4 16 24 35 44 18
21 32 38 29 38 -3 0 2 7 10 16 9 9 29 32 44 52 15 21 32 42 37 48 6 7 19 24
30 40 11 15 41 55 68 88 26 34 62 80 80 104 17 23 42 55 54 70 12 15 88 113
169 217 80 105 150 192 155 193 5 2 9 9 9 15 0 7 13 26 28 43 15 17 38 46 52
63 45 59 250 326 263 341 7 9 25 33 41 55 17 22 32 42 35 45 4 3 26 32 51 65
25 33 47 62 51 65 3 3 18 23 35 45 16 22 34 45 39 52 6 6 20 24 31 40 18 23
126 163 239 308 156 200 235 304 235 308 0 5 -33 16 -74 23 -51 10 -289 90
-381 129 -109 47 -299 144 -303 156 -2 5 -8 9 -14 9 -10 0 -143 85 -164 105
-6 5 -26 21 -44 35 -87 66 -219 193 -285 275 -22 28 -43 52 -46 55 -3 3 -36
49 -71 102 -72 107 -164 288 -198 388 -12 36 -24 72 -27 80 -6 16 -11 33 -16
53 -1 6 -6 18 -11 25 -4 7 -5 16 -2 19 3 3 1 13 -4 22 -8 16 -30 130 -47 246
-9 60 -9 454 0 510 3 22 9 60 12 85 3 25 7 52 10 60 2 8 7 29 9 45 10 57 67
247 92 308 48 115 88 193 131 254 13 17 23 34 23 38 0 3 4 11 10 18 5 7 31 39
57 72 68 88 178 197 258 257 39 29 76 59 83 66 7 6 17 12 22 12 5 0 15 6 22
13 30 30 320 187 345 187 4 0 19 6 33 13 32 17 207 77 240 83 14 3 39 9 55 14
17 5 41 11 55 14 14 3 66 14 115 24 50 11 107 23 127 26 21 3 58 10 83 16 25
6 48 10 52 9 5 -1 10 0 13 1 9 3 43 9 90 15 25 3 56 7 70 10 14 2 46 7 73 10
26 3 68 8 95 11 49 7 58 8 237 19 61 4 111 8 112 9 1 0 389 1 862 1 845 -1
861 -1 875 -20z"/>
<path d="M3688 9025 c-1 -1 -37 -6 -78 -9 -85 -8 -142 -15 -182 -21 -16 -3
-43 -7 -60 -10 -27 -5 -113 -24 -173 -39 -52 -13 -132 -40 -139 -47 -6 -5 -17
-9 -26 -9 -29 0 -243 -113 -307 -163 -70 -54 -158 -139 -188 -181 -11 -15 -27
-35 -35 -44 -64 -67 -157 -296 -184 -452 -19 -108 -25 -366 -12 -465 3 -22 7
-55 9 -73 2 -17 7 -35 10 -39 4 -3 7 -16 7 -28 0 -28 51 -185 86 -262 24 -55
100 -184 134 -228 27 -35 194 -201 220 -218 125 -84 170 -112 228 -141 92 -47
189 -85 196 -78 3 3 6 -1 6 -8 0 -7 3 -11 6 -7 4 3 22 0 40 -8 19 -8 35 -14
37 -13 1 1 36 -6 77 -16 41 -9 93 -21 115 -26 22 -5 60 -12 85 -15 25 -3 56
-7 70 -10 81 -14 234 -18 752 -19 507 -1 577 1 580 14 2 8 3 600 3 1315 l0
1300 -637 2 c-350 1 -638 0 -640 -2z m893 -374 c3 -1 5 -423 5 -938 l-1 -938
-390 0 c-456 1 -492 3 -720 49 -31 7 -128 34 -155 44 -8 3 -20 6 -26 7 -6 2
-47 20 -90 40 -236 112 -397 277 -468 482 -47 132 -59 205 -59 368 -1 318 79
514 270 656 61 45 211 123 258 134 6 2 35 10 66 19 31 9 65 18 75 20 11 3 39
9 64 15 25 5 68 13 95 16 28 4 61 9 75 11 14 3 84 7 155 10 72 4 131 7 132 8
1 1 704 -1 714 -3z"/>
</g>
</svg>
