<?xml version="1.0" standalone="no"?>
<!DOCTYPE svg PUBLIC "-//W3C//DTD SVG 20010904//EN"
 "http://www.w3.org/TR/2001/REC-SVG-20010904/DTD/svg10.dtd">
<svg version="1.0" xmlns="http://www.w3.org/2000/svg"
 width="1264.000000pt" height="1264.000000pt" viewBox="0 0 1264.000000 1264.000000"
 preserveAspectRatio="xMidYMid meet">
<metadata>
Created by potrace 1.14, written by Peter Selinger 2001-2017
</metadata>
<g transform="translate(0.000000,1264.000000) scale(0.100000,-0.100000)"
fill="#000000" stroke="none">
<path d="M3399 10156 c-2 -2 -49 -6 -104 -10 -55 -4 -113 -9 -130 -12 -16 -3
-50 -7 -75 -9 -25 -2 -45 -4 -45 -5 0 -1 -20 -3 -45 -5 -25 -2 -58 -6 -75 -9
-16 -4 -50 -9 -75 -11 -25 -3 -53 -8 -63 -11 -9 -3 -34 -7 -55 -9 -20 -3 -48
-7 -62 -10 -14 -3 -54 -10 -89 -16 -36 -5 -67 -12 -70 -13 -3 -2 -24 -7 -46
-10 -22 -4 -48 -9 -57 -12 -19 -6 -54 -14 -133 -30 -52 -11 -239 -70 -300 -95
-16 -7 -35 -13 -41 -14 -56 -12 -417 -209 -462 -252 -6 -6 -21 -15 -32 -18
-11 -3 -20 -10 -20 -15 0 -5 -13 -16 -29 -25 -35 -18 -241 -219 -298 -290 -74
-93 -218 -328 -213 -350 0 -3 -6 -18 -15 -33 -13 -24 -85 -215 -85 -227 0 -10
-13 -60 -18 -70 -3 -5 -7 -18 -8 -30 -2 -11 -10 -54 -19 -95 -15 -71 -19 -97
-32 -200 -14 -117 -7 -510 12 -615 3 -16 7 -43 10 -60 3 -16 8 -41 11 -55 3
-14 7 -36 10 -50 20 -99 87 -297 129 -386 14 -28 25 -54 25 -58 0 -3 11 -24
25 -46 14 -22 22 -40 18 -40 -5 0 -3 -4 3 -8 6 -4 21 -25 33 -47 57 -107 194
-285 303 -395 95 -96 278 -250 296 -250 6 0 12 -4 14 -9 3 -8 192 -131 202
-131 2 0 31 -15 64 -34 33 -19 62 -32 65 -30 2 3 10 -2 17 -11 7 -8 16 -15 21
-15 5 0 37 -13 71 -29 145 -66 457 -169 530 -175 3 -1 9 -3 12 -6 2 -3 -94
-134 -216 -290 -121 -157 -239 -310 -262 -340 -22 -30 -44 -57 -47 -60 -3 -3
-19 -23 -35 -45 -16 -23 -35 -47 -42 -55 -7 -8 -26 -33 -43 -55 -16 -22 -41
-53 -53 -70 -13 -16 -111 -142 -217 -280 -106 -137 -234 -303 -283 -367 -50
-64 -100 -129 -111 -144 -11 -15 -25 -32 -30 -38 -6 -6 -40 -49 -75 -96 -35
-47 -69 -90 -75 -96 -5 -7 -19 -24 -29 -39 -11 -14 -27 -35 -35 -45 -9 -10
-23 -28 -31 -40 -8 -12 -30 -39 -47 -59 -18 -20 -33 -41 -33 -48 0 -7 -6 -16
-13 -20 -7 -4 -26 -26 -43 -48 -16 -22 -35 -46 -41 -55 -11 -13 -125 -161
-193 -250 -14 -18 -33 -42 -42 -54 -29 -35 -31 -37 -118 -151 -70 -92 -182
-236 -294 -380 -13 -16 -41 -52 -62 -80 -20 -27 -53 -69 -72 -92 l-34 -43 628
0 629 1 55 79 c30 44 58 79 63 80 4 0 7 5 7 11 0 6 6 17 13 24 22 25 32 39 67
90 19 28 40 56 46 62 7 7 27 35 45 63 18 27 36 50 41 50 4 0 8 7 8 15 0 8 5
15 10 15 6 0 10 6 10 14 0 8 3 16 8 18 7 3 151 197 192 259 8 12 22 30 30 38
8 9 29 37 45 61 17 25 35 50 40 56 6 6 35 46 65 88 76 106 238 329 248 341 4
6 50 69 102 140 52 72 97 132 100 135 4 3 9 10 11 16 2 6 14 24 27 40 12 16
47 63 77 104 30 41 58 80 63 85 4 6 23 33 42 60 19 28 37 52 40 55 3 3 46 61
95 130 49 69 92 127 95 130 3 3 45 59 92 125 47 66 118 163 156 215 39 52 80
109 92 125 26 38 127 175 143 196 6 8 17 23 22 31 6 9 43 61 84 117 73 99 75
101 115 102 50 0 980 0 1019 -1 l27 0 0 -1585 0 -1585 458 2 457 3 -2 1165
c-1 641 -3 1182 -6 1203 -2 20 -1 37 3 37 4 0 6 12 4 28 -4 34 -5 54 -5 172 1
52 -1 577 -3 1165 -6 1564 -7 2327 -4 2331 3 2 23 -34 99 -176 13 -25 26 -47
29 -50 3 -3 16 -25 28 -50 46 -89 125 -235 132 -245 8 -11 54 -94 93 -167 13
-24 27 -50 32 -58 5 -8 10 -17 10 -20 1 -5 20 -39 91 -163 19 -32 34 -64 34
-72 0 -7 4 -15 8 -17 7 -3 31 -45 120 -208 19 -36 68 -125 108 -198 41 -73 74
-137 74 -142 0 -6 5 -10 11 -10 5 0 8 -4 4 -9 -3 -5 -1 -12 4 -15 5 -3 19 -25
31 -48 12 -24 35 -67 51 -95 16 -29 42 -77 58 -105 118 -218 194 -354 202
-362 5 -6 9 -18 9 -27 0 -10 4 -19 9 -21 8 -3 45 -68 114 -203 17 -33 34 -62
37 -65 4 -3 17 -25 29 -50 28 -56 66 -126 131 -241 27 -49 50 -93 50 -99 0 -5
5 -10 10 -10 6 0 10 -9 10 -20 0 -11 5 -20 10 -20 6 0 10 -6 10 -14 0 -7 7
-19 15 -26 9 -7 13 -15 11 -18 -3 -3 3 -17 14 -32 11 -16 20 -30 20 -33 0 -3
29 -56 63 -118 35 -63 86 -154 112 -204 26 -49 51 -94 55 -100 8 -11 80 -144
114 -210 12 -22 24 -42 27 -45 4 -3 9 -15 13 -27 4 -13 12 -23 17 -23 5 0 9
-7 9 -16 0 -9 8 -28 18 -42 11 -15 25 -40 34 -57 17 -35 83 -156 108 -200 24
-41 127 -230 169 -310 14 -27 31 -53 36 -57 6 -4 6 -8 1 -8 -5 0 -2 -8 6 -17
8 -10 43 -70 77 -133 l63 -115 448 0 449 0 18 37 c10 21 21 38 26 38 4 0 7 5
7 10 0 9 144 271 170 310 6 8 13 22 17 30 4 8 34 62 66 120 58 102 94 167 133
240 11 19 21 37 24 40 3 3 18 30 34 60 30 57 119 213 136 240 6 8 14 24 19 35
5 11 32 60 60 108 28 49 51 90 51 92 0 2 39 72 88 157 48 85 96 172 107 193
11 22 22 42 26 45 4 5 150 264 195 350 11 19 23 38 27 41 5 3 9 12 11 20 1 8
9 25 17 39 39 64 76 128 92 160 10 19 27 51 39 70 11 19 32 55 45 80 14 25 35
63 47 85 13 22 36 63 51 90 15 28 48 85 72 128 24 42 55 99 70 125 14 26 65
117 113 202 76 134 121 216 164 295 6 11 13 22 16 25 3 3 20 34 39 70 19 36
37 67 40 70 3 3 16 25 28 50 12 25 35 68 51 95 16 28 42 73 57 100 15 28 56
101 91 162 35 62 64 117 64 123 0 5 4 10 9 10 5 0 11 8 14 18 6 15 34 67 94
172 11 19 35 62 53 95 18 33 53 96 78 140 25 44 59 105 75 135 16 30 33 59 38
64 4 5 8 -1356 8 -3025 0 -1669 0 -3044 1 -3057 l0 -22 417 2 417 3 1 3838 0
3837 -381 0 -381 0 -11 -22 c-6 -13 -24 -44 -39 -70 -142 -241 -223 -381 -223
-389 0 -5 -4 -9 -8 -9 -4 0 -20 -24 -36 -52 -15 -29 -43 -78 -61 -108 -19 -30
-38 -62 -41 -70 -4 -8 -22 -38 -39 -65 -18 -28 -40 -68 -50 -88 -9 -20 -21
-37 -26 -37 -5 0 -9 -9 -9 -20 0 -11 -4 -20 -10 -20 -5 0 -10 -7 -10 -15 0 -8
-4 -15 -10 -15 -5 0 -10 -4 -10 -9 0 -5 -52 -98 -116 -207 -65 -110 -125 -212
-134 -229 -61 -107 -94 -162 -106 -175 -7 -8 -14 -19 -15 -25 -1 -5 -9 -21
-17 -35 -8 -14 -22 -36 -31 -50 -8 -14 -13 -25 -10 -26 2 0 -4 -8 -13 -18 -10
-10 -18 -24 -18 -32 0 -8 -4 -14 -10 -14 -5 0 -10 -5 -10 -10 0 -6 -11 -29
-26 -51 -14 -22 -33 -55 -43 -72 -33 -58 -262 -449 -300 -511 -21 -34 -41 -68
-45 -76 -4 -8 -12 -24 -19 -35 -37 -61 -93 -156 -115 -195 -13 -25 -30 -52
-37 -60 -7 -8 -18 -30 -26 -47 -8 -18 -17 -33 -21 -33 -5 0 -8 -4 -8 -10 0 -5
-19 -40 -42 -77 -22 -38 -49 -81 -58 -98 -24 -42 -79 -137 -90 -155 -15 -24
-126 -212 -147 -250 -61 -107 -98 -166 -107 -172 -6 -4 -7 -8 -3 -8 4 0 -7
-24 -25 -52 -18 -29 -42 -70 -53 -90 -11 -21 -23 -38 -27 -38 -5 0 -8 -9 -8
-19 0 -11 -4 -21 -8 -23 -5 -1 -33 -46 -62 -98 -30 -52 -57 -97 -61 -100 -3
-3 -12 -20 -20 -37 -8 -18 -17 -33 -21 -33 -5 0 -8 -5 -8 -10 0 -6 -16 -36
-35 -66 -19 -30 -35 -56 -35 -59 0 -2 -45 -79 -100 -171 -55 -93 -100 -172
-100 -176 0 -4 -4 -8 -10 -8 -5 0 -10 -5 -10 -11 0 -6 -26 -54 -57 -107 -32
-54 -63 -107 -70 -119 -7 -13 -19 -33 -26 -45 -7 -13 -25 -42 -40 -65 -15 -24
-27 -45 -27 -48 0 -3 -8 -18 -19 -33 -10 -15 -56 -92 -102 -172 -46 -80 -85
-147 -88 -150 -4 -3 -17 -26 -31 -52 -13 -27 -27 -48 -30 -48 -8 0 -70 106
-70 119 0 6 -3 11 -7 11 -5 0 -13 10 -19 23 -6 12 -44 78 -84 147 -40 69 -81
140 -91 158 -11 17 -27 47 -38 65 -10 17 -35 61 -56 97 -21 36 -46 79 -56 95
-10 17 -22 37 -26 45 -4 8 -33 59 -65 113 -32 54 -58 100 -58 102 0 2 -18 33
-40 69 -22 36 -40 70 -40 76 0 5 -4 10 -10 10 -5 0 -10 6 -10 14 0 7 -7 19
-15 26 -8 6 -14 15 -12 18 1 7 -77 145 -154 270 -22 35 -39 65 -39 68 0 3 -29
53 -64 112 -35 59 -75 129 -90 155 -27 50 -41 73 -72 122 -10 17 -19 32 -19
35 0 5 -26 48 -132 228 -24 41 -43 78 -43 83 0 5 -4 9 -10 9 -5 0 -10 5 -10
10 0 6 -23 48 -50 94 -28 46 -50 86 -50 89 0 3 -12 23 -26 44 -14 21 -30 47
-35 58 -5 11 -13 27 -19 35 -14 21 -103 174 -161 278 -12 20 -52 89 -89 152
-37 63 -70 123 -73 133 -4 9 -11 17 -17 17 -5 0 -10 7 -10 16 0 9 -8 28 -19
42 -28 41 -211 363 -211 372 0 5 -4 10 -8 12 -4 2 -23 30 -41 63 -55 97 -73
128 -92 160 -11 17 -24 41 -31 55 -7 14 -16 30 -21 35 -15 18 -97 168 -97 177
0 4 -4 8 -10 8 -5 0 -10 4 -10 9 0 4 -48 91 -107 192 -100 174 -127 219 -161
279 -7 14 -25 43 -38 65 -13 22 -35 60 -49 85 -13 25 -38 68 -55 95 -17 28
-33 57 -37 65 -4 8 -9 17 -12 20 -3 3 -15 23 -26 45 -11 22 -24 45 -28 50 -20
26 -155 265 -149 265 4 0 2 4 -4 8 -6 4 -35 49 -65 100 l-53 92 -1007 0 c-554
-1 -1008 -2 -1010 -4z m1246 -838 c7 -4 9 -493 8 -1440 0 -788 -2 -1442 -2
-1454 l-1 -20 -672 2 c-370 2 -686 5 -703 7 -16 3 -61 8 -100 12 -38 4 -73 9
-76 11 -3 1 -28 6 -55 10 -27 3 -53 8 -57 11 -4 2 -20 6 -36 8 -15 2 -57 11
-92 20 -35 10 -71 19 -79 20 -8 2 -15 4 -15 5 0 1 -7 3 -15 5 -40 8 -218 80
-287 116 -78 41 -213 128 -267 171 -81 65 -200 194 -262 283 -37 54 -102 178
-133 255 -49 123 -91 294 -95 382 0 21 -3 38 -7 38 -7 0 -2 329 6 395 11 89
12 100 14 100 2 0 4 7 6 15 2 8 6 26 9 40 4 22 9 43 20 85 19 80 90 228 154
324 88 131 231 261 390 354 35 20 65 37 67 37 3 0 29 11 59 25 64 29 107 47
121 50 6 2 37 12 71 23 33 12 71 23 85 26 13 3 34 7 47 10 46 12 68 17 102 22
19 3 42 10 51 15 9 4 18 6 21 4 3 -3 29 -1 59 4 77 14 150 21 264 27 55 3 101
6 102 7 5 6 1290 1 1298 -5z"/>
</g>
</svg>
