<svg width="96" height="59" viewBox="0 0 96 59"  xmlns="http://www.w3.org/2000/svg">
<path d="M89.4643 0.5H89.1781L89.0332 0.746836L65.8663 40.2029L43.0366 0.749578L42.8922 0.5H42.6039H28.6335H28.621L28.6086 0.500619C25.4695 0.65694 22.3523 1.1111 19.299 1.857L19.299 1.85698L19.2947 1.85808C16.9015 2.46547 14.6584 3.55714 12.7038 5.06562L12.7038 5.06559L12.6988 5.06954C10.9942 6.42002 9.65618 8.1771 8.80764 10.1795L8.8076 10.1794L8.80523 10.1852C7.94412 12.2903 7.5163 14.5474 7.54734 16.8215C7.53597 18.7668 7.86611 20.6989 8.5227 22.5301L8.52335 22.5319C9.16126 24.2899 10.1147 25.9169 11.3369 27.3326L11.3369 27.3326L11.3401 27.3362C12.617 28.787 14.1333 30.0077 15.8231 30.9456C17.4577 31.8649 19.203 32.569 21.0156 33.0414L2.60451 56.8437L1.98113 57.6496H3H12.1548H12.409L12.5588 57.4442L29.3211 34.4574H36.5011V57.1496V57.6496H37.0011H43.7146H44.2163L44.2146 57.1479L44.0687 14.3712L62.2999 47.6249L62.4422 47.8845H62.7383H69.2993H69.5922L69.7355 47.6289L88.3968 14.3222V57.1496V57.6496H88.8968H95H95.5V57.1496V1V0.5H95H89.4643ZM28.6335 7.60322H36.5193V27.9645H28.9997V27.9645L28.9918 27.9646C27.0457 27.9955 25.1062 27.7288 23.2408 27.1736C21.7426 26.7268 20.3505 25.9814 19.1483 24.982C18.0867 24.0707 17.2506 22.9261 16.7053 21.6376C16.1379 20.261 15.8541 18.7841 15.8713 17.2952H15.8713V17.2895C15.8713 14.041 16.9371 11.6618 19.0147 10.0628C21.1157 8.44577 24.2949 7.5992 28.633 7.60322H28.6335Z" fill="inherit" stroke="inherit"/>
</svg>
