<svg width="96" height="96" viewBox="0 0 96 96" fill="none" xmlns="http://www.w3.org/2000/svg">
<path d="M89.4643 19.5H89.1781L89.0332 19.7468L65.8663 59.2029L43.0366 19.7496L42.8922 19.5H42.6039H28.6335H28.621L28.6086 19.5006C25.4695 19.6569 22.3523 20.1111 19.299 20.857L19.299 20.857L19.2947 20.8581C16.9015 21.4655 14.6584 22.5571 12.7038 24.0656L12.7038 24.0656L12.6988 24.0695C10.9942 25.42 9.65618 27.1771 8.80764 29.1795L8.8076 29.1794L8.80523 29.1852C7.94412 31.2903 7.5163 33.5474 7.54734 35.8215C7.53597 37.7668 7.86611 39.6989 8.5227 41.5301L8.52335 41.5319C9.16126 43.2899 10.1147 44.9169 11.3369 46.3326L11.3369 46.3326L11.3401 46.3362C12.617 47.787 14.1333 49.0077 15.8231 49.9456C17.4577 50.8649 19.203 51.569 21.0156 52.0414L2.60451 75.8437L1.98113 76.6496H3H12.1548H12.409L12.5588 76.4442L29.3211 53.4574H36.5011V76.1496V76.6496H37.0011H43.7146H44.2163L44.2146 76.1479L44.0687 33.3712L62.2999 66.6249L62.4422 66.8845H62.7383H69.2993H69.5922L69.7355 66.6289L88.3968 33.3222V76.1496V76.6496H88.8968H95H95.5V76.1496V20V19.5H95H89.4643ZM28.6335 26.6032H36.5193V46.9645H28.9997V46.9645L28.9918 46.9646C27.0457 46.9955 25.1062 46.7288 23.2408 46.1736C21.7426 45.7268 20.3505 44.9814 19.1483 43.982C18.0867 43.0707 17.2506 41.9261 16.7053 40.6376C16.1379 39.261 15.8541 37.7841 15.8713 36.2952H15.8713V36.2895C15.8713 33.041 16.9371 30.6618 19.0147 29.0628C21.1157 27.4458 24.2949 26.5992 28.633 26.6032H28.6335Z" fill="#FFC1B3" stroke="#FFC1B3"/>
</svg>
