<svg width="79" height="48" viewBox="0 0 79 48" fill="none" xmlns="http://www.w3.org/2000/svg">
<g clip-path="url(#clip0)">
<path d="M75.7271 2.35294V45.6471H71.0212V11.1482L55.9153 38.1176H50.8565L36.08 11.1482L36.1976 45.6471H31.0212V27.7647H24.9035L11.8494 45.6471H4.79059L19.3553 26.8235C17.7856 26.481 16.2747 25.9102 14.8706 25.1294C13.6058 24.4276 12.4709 23.514 11.5153 22.4282C10.5995 21.3655 9.88646 20.1437 9.41176 18.8235C8.91972 17.4467 8.67439 15.9938 8.68706 14.5318C8.6633 12.8288 8.98342 11.1386 9.62823 9.56235C10.2607 8.08644 11.2524 6.79224 12.5129 5.79765C13.9779 4.66506 15.6596 3.84502 17.4541 3.38824C19.7831 2.81921 22.1608 2.47255 24.5553 2.35294H35.3318L53.2612 33.3459L71.4635 2.35294H75.7271V2.35294ZM24.8376 23.5294H31.0212V7.05882H24.5647C21.1765 7.05882 18.6243 7.71765 16.9082 9.03529C15.1922 10.3529 14.3341 12.3122 14.3341 14.9129C14.3203 16.1134 14.5492 17.3043 15.0071 18.4141C15.4511 19.464 16.1324 20.3967 16.9976 21.1388C17.9652 21.9436 19.0858 22.5439 20.2918 22.9035C21.7664 23.3424 23.2993 23.5534 24.8376 23.5294V23.5294ZM78.08 0H70.1176L69.44 1.16235L53.2753 28.6729L37.3647 1.17647L36.7059 0H24.3765C21.8374 0.136438 19.3166 0.509826 16.8471 1.11529C14.7438 1.65184 12.7725 2.61268 11.0541 3.93882C9.4914 5.18668 8.2639 6.80394 7.48235 8.64471C6.71913 10.5124 6.33828 12.5143 6.36235 14.5318C6.35141 16.2681 6.64446 17.9929 7.22824 19.6282C7.80113 21.207 8.65753 22.6678 9.75529 23.9388C10.8886 25.2301 12.2353 26.3173 13.7365 27.1529C14.2965 27.4721 14.8747 27.7581 15.4682 28.0094L2.93176 44.2071L0 48H13.0447L13.7506 47.0588L26.0847 30.1176H28.6682V48H38.5506V45.6471L38.4659 20.4094L48.7906 39.2471L49.4635 40.4706H57.2941L57.9671 39.2659L68.6682 20.1647V48H78.08V0V0ZM24.8376 21.1765C23.5388 21.1996 22.244 21.0251 20.9976 20.6588C20.0946 20.3932 19.2543 19.9483 18.5271 19.3506C17.9384 18.8463 17.4759 18.2114 17.1765 17.4965C16.8478 16.6756 16.6878 15.797 16.7059 14.9129C16.7059 12.4612 17.6471 11.4494 18.3671 10.8988C19.6329 9.91529 21.7271 9.41176 24.5647 9.41176H28.6682V21.1765H24.8376Z" fill="black"/>
</g>
<defs>
<clipPath id="clip0">
<rect width="78.08" height="48" fill="white"/>
</clipPath>
</defs>
</svg>
