<svg width="79" height="48" viewBox="0 0 79 48" fill="none" xmlns="http://www.w3.org/2000/svg">
  <style>
    path {
      fill: black;
    }
    @media (prefers-color-scheme: dark) {
      path {
        fill: white;
      }
    }
  </style>
  <path d="M73.9148 0L53.7391 34.3617L33.8557 0H21.913C19.2565 0.132286 16.6186 0.516621 14.0348 1.14783C12.0456 1.65269 10.1812 2.56007 8.55652 3.81391C7.15545 4.92391 6.0557 6.36811 5.35826 8.01391C4.64336 9.76154 4.28845 11.6355 4.31478 13.5235C4.30486 15.1378 4.57859 16.7413 5.12348 18.2609C5.65106 19.7149 6.43964 21.0605 7.45043 22.2313C8.50995 23.4351 9.76822 24.448 11.1704 25.2261C12.7257 26.1009 14.4009 26.7425 16.1426 27.1304L0 48H7.82609L22.2835 28.1739H29.0661V48H34.8052L34.6748 9.7513L51.0678 39.6522H56.6765L73.4296 9.7513V48H78.647V0H73.9148ZM29.0817 23.4783H22.2261C20.5188 23.5054 18.8174 23.2714 17.1809 22.7843C15.8438 22.3856 14.6014 21.7201 13.5287 20.8278C12.5694 20.005 11.814 18.971 11.3217 17.807C10.8142 16.5765 10.5604 15.2562 10.5757 13.9252C10.5757 11.0452 11.527 8.87304 13.4296 7.4087C15.3322 5.94435 18.16 5.21391 21.913 5.21739H29.0817V23.4783Z" fill="#bb86fc"/>
</svg>
